<svg width="137" height="56" viewBox="0 0 137 56" fill="none" xmlns="http://www.w3.org/2000/svg">
<path d="M37.0597 1.78461C36.4288 2.8923 35.4193 3.63076 34.2205 3.87691C31.7598 4.36922 30.7503 3.99999 29.7409 2.0923C28.7314 0.307682 27.5326 0.246143 24.8826 1.84615C23.0529 2.8923 22.9267 3.26153 23.2422 5.23076C23.5577 7.01538 23.3053 7.75384 22.1065 8.98461C20.8447 10.2769 20.2768 10.4615 18.3209 10.1538C16.1126 9.78461 15.9864 9.84615 14.9769 12.4308C13.9044 15.0154 13.9044 15.0769 15.3555 16.1231C18.1947 18.2154 18.384 18.5231 18.384 20.1846C18.384 21.2923 17.7531 22.3385 16.365 23.4461L14.4091 25.0461L15.3555 27.4461C16.365 29.7846 16.4281 29.8461 19.1411 29.6615C22.8006 29.4154 24.7565 31.2615 24.5041 34.7692C24.3779 36.9846 24.5041 37.1692 26.8385 38.0923C29.2361 39.0154 29.2992 39.0154 30.9396 37.0461C33.0848 34.4615 36.1764 34.2769 38.0692 36.6154C39.5204 38.4 40.4668 38.5231 42.9905 37.2308C44.694 36.3692 44.8202 36.1231 44.5048 33.6615C44 30.2769 45.6404 28.6154 49.363 28.8C51.6974 28.9846 51.9498 28.8 52.77 26.8308C54.0319 23.8769 53.9688 23.6308 51.8236 22.3385C49.2999 20.9231 49.1106 17.3538 51.5082 15.5077C53.3379 14.0923 53.4641 12.9846 52.1391 10.4615C51.2558 8.79999 51.0034 8.67691 48.4797 8.98461C45.0095 9.47692 43.306 7.87691 43.4953 4.24614C43.6845 1.96922 43.4953 1.72307 41.4763 0.923065C38.4478 -0.307701 38.1323 -0.246162 37.0597 1.78461ZM40.7822 9.66153C45.7035 12.9846 47.344 19.1385 44.8833 24.5538C43.5584 27.3846 43.2429 27.4461 38.8894 25.8461C36.9966 25.1692 36.9335 24.6769 38.5109 21.6615C39.1418 20.4308 39.7096 18.0923 39.7727 16.4923C39.8358 14.0308 39.5835 13.4769 37.8799 12.0615C33.5896 8.4923 28.7944 11.2615 28.6052 17.3538C28.5421 18.5846 28.9206 20.4308 29.4254 21.3538C31.192 24.6154 30.7503 25.2923 26.1445 26.7077C25.0719 27.0154 24.5041 26.7692 23.747 25.6C19.8982 19.8769 22.2327 12.1231 28.7944 8.86153C32.8324 6.83076 36.9966 7.13845 40.7822 9.66153Z" fill="black"/>
<path d="M82.7395 1.53844V3.0769H109.87H137V1.53844V-1.88351e-05H109.87H82.7395V1.53844Z" fill="black"/>
<path d="M122.047 15.2L119.334 15.4462V27.9385C119.334 42.2769 118.829 41.2308 125.643 41.2308C133.341 41.2308 137 38.8308 137 33.8462C137 31.5692 136.685 30.5846 135.36 29.3539C134.476 28.4923 133.151 27.6923 132.394 27.5692C131.132 27.3846 131.132 27.2615 132.962 26.3385C134.792 25.3539 136.369 23.0154 136.369 21.1692C136.369 19.3846 134.539 16.8 132.773 16.1231C130.564 15.3231 125.58 14.8923 122.047 15.2ZM130.88 20.4308C131.448 21.1077 131.953 21.9077 131.953 22.1539C131.953 22.4 131.448 23.2 130.88 23.9385C130.06 24.9231 128.924 25.2923 126.905 25.4154L124.066 25.5385L123.877 22.5231C123.75 20.5539 123.94 19.3231 124.507 18.9539C125.769 18.1539 129.618 19.0154 130.88 20.4308ZM130.817 30.2154C132.457 31.0769 132.899 33.6 131.7 35.3846C130.564 37.0462 128.672 37.7231 125.896 37.4154C124.192 37.2308 124.066 37.0462 123.877 33.9077C123.561 29.1077 123.877 28.7385 127.094 29.2308C128.545 29.4769 130.249 29.9077 130.817 30.2154Z" fill="black"/>
<path d="M83.6859 16.6769C83.9383 17.4154 85.9573 23.0769 88.1024 29.1692L92.0773 40.3077L94.9796 40.4923C96.557 40.6154 97.8819 40.5538 97.8819 40.4308C97.8819 40.3077 99.8379 34.5846 102.299 27.7538L106.715 15.3231L104.065 15.5077L101.415 15.6923L99.3331 22.4615C98.1343 26.1538 96.7463 30.7077 96.2415 32.4923C95.6737 34.3385 95.1058 35.6308 94.9165 35.4461C94.7273 35.2615 93.213 30.7692 91.5726 25.4154L88.6072 15.6923L85.8942 15.5077C83.4335 15.3231 83.3073 15.3846 83.6859 16.6769Z" fill="black"/>
<path d="M10.1818 31.0154C10.1818 31.5077 9.5509 32.3692 8.85687 32.8615C7.78428 33.5385 7.15334 33.6 5.95456 33.0462C4.75578 32.5538 4.25104 32.6154 3.36773 33.4154C2.48441 34.3385 2.42132 34.7077 3.11535 35.6923C4.06175 37.2308 3.24154 39.1385 1.34873 39.6923C-0.480985 40.2462 -0.417891 43.6923 1.34873 43.6923C2.79988 43.6923 4.06175 46.0923 3.17844 47.0769C2.29513 47.9385 2.48441 49.6 3.6201 50.5231C4.37722 51.1385 4.88197 51.1385 5.82838 50.5231C7.5319 49.5385 9.36162 50.1538 9.80327 52C10.3711 54.0923 13.1472 54.1538 13.9044 52.0615C14.6615 50.2769 16.1757 49.6615 17.8793 50.5231C18.9518 51.0769 19.3935 50.9538 20.4661 49.9692C21.5387 48.9231 21.6018 48.4923 20.9708 47.7538C19.8352 46.4615 20.7185 44.3692 22.5482 43.9385C24.5672 43.4462 24.8196 40 22.8006 40C20.9708 40 19.9613 37.7231 20.9708 35.8769C21.6649 34.6462 21.6018 34.2769 20.7185 33.3538C19.8352 32.5538 19.3935 32.4923 18.4471 33.0462C16.8067 34.0923 14.6615 33.3538 14.2198 31.6308C13.9044 30.5231 13.3996 30.1538 12.0115 30.1538C10.8128 30.1538 10.1818 30.4615 10.1818 31.0154ZM15.1031 38.1538C17.8162 40.6769 17.5007 43.8769 14.2829 45.9077C11.3175 47.8154 7.02715 45.3538 7.02715 41.8462C7.02715 37.7846 12.1377 35.5077 15.1031 38.1538Z" fill="black"/>
<path d="M107.346 37.8462V40.6154H110.185H113.024V37.8462V35.0769H110.185H107.346V37.8462Z" fill="black"/>
<path d="M31.2551 41.0461C30.6242 42.0308 30.3087 42.0308 29.1099 41.3538C27.3433 40.3077 26.0183 41.2923 26.46 43.4461C26.6493 44.6154 26.46 45.0461 25.4505 45.3538C23.4946 45.8461 23.2422 47.3231 24.8195 48.6154C26.0183 49.5385 26.1445 49.8461 25.3874 50.7077C24.3148 52 25.2612 53.1692 27.4064 53.2308C28.2266 53.2308 29.0468 53.7846 29.4254 54.5846C30.1194 56.2461 31.9491 56.4308 32.517 55.0154C32.8324 54.2769 33.4003 54.0923 34.7883 54.3385C36.8073 54.7692 37.6906 53.9692 37.3752 52.1231C37.3121 51.3846 37.6906 50.8923 38.5109 50.6461C40.3406 50.2154 40.7191 48.6154 39.2049 47.2615C38.1954 46.3385 38.0692 45.8461 38.5739 44.8615C39.5204 43.2 38.8894 42.4615 36.5549 42.4615C35.23 42.4615 34.599 42.0923 34.3467 41.2308C33.905 39.6923 32.2015 39.6308 31.2551 41.0461ZM34.0312 45.2923C35.6716 46.4 35.7978 48.3692 34.3467 49.9692C32.3277 52.1231 28.479 50.5846 28.479 47.6308C28.479 46.2769 30.5611 44.3077 31.9491 44.3077C32.3277 44.3077 33.2741 44.7385 34.0312 45.2923Z" fill="black"/>
<path d="M82.7395 54.4615V56H109.87H137V54.4615V52.9231H109.87H82.7395V54.4615Z" fill="black"/>
</svg>
